<svg xmlns="http://www.w3.org/2000/svg" xmlns:xlink="http://www.w3.org/1999/xlink" width="512" height="512" viewBox="72 49 231 196" preserveAspectRatio="xMidYMid meet" version="1.0"><defs><g/><clipPath id="68384b6895"><path d="M 72.835938 49.253906 L 303.511719 49.253906 L 303.511719 244.792969 L 72.835938 244.792969 Z M 72.835938 49.253906 " clip-rule="nonzero"/></clipPath><clipPath id="1dadf361b4"><path d="M 187.96875 49.253906 C 124.382812 49.253906 72.835938 93.027344 72.835938 147.023438 C 72.835938 201.019531 124.382812 244.792969 187.96875 244.792969 C 251.554688 244.792969 303.101562 201.019531 303.101562 147.023438 C 303.101562 93.027344 251.554688 49.253906 187.96875 49.253906 Z M 187.96875 49.253906 " clip-rule="nonzero"/></clipPath><clipPath id="f6f3259b87"><path d="M 0.835938 0.253906 L 231 0.253906 L 231 195.792969 L 0.835938 195.792969 Z M 0.835938 0.253906 " clip-rule="nonzero"/></clipPath><clipPath id="407765da12"><path d="M 115.96875 0.253906 C 52.382812 0.253906 0.835938 44.027344 0.835938 98.023438 C 0.835938 152.019531 52.382812 195.792969 115.96875 195.792969 C 179.554688 195.792969 231.101562 152.019531 231.101562 98.023438 C 231.101562 44.027344 179.554688 0.253906 115.96875 0.253906 Z M 115.96875 0.253906 " clip-rule="nonzero"/></clipPath><clipPath id="177a92b6b4"><rect x="0" width="232" y="0" height="196"/></clipPath><clipPath id="03e1ff256f"><path d="M 47.09375 0.699219 L 101.902344 0.699219 L 101.902344 134.285156 L 47.09375 134.285156 Z M 47.09375 0.699219 " clip-rule="nonzero"/></clipPath><clipPath id="a627017625"><path d="M 0.09375 0.699219 L 54.902344 0.699219 L 54.902344 134.285156 L 0.09375 134.285156 Z M 0.09375 0.699219 " clip-rule="nonzero"/></clipPath><clipPath id="9b2bbae43c"><rect x="0" width="55" y="0" height="135"/></clipPath><clipPath id="4204a19637"><path d="M 0.832031 21.230469 L 93.351562 21.230469 L 93.351562 113.753906 L 0.832031 113.753906 Z M 0.832031 21.230469 " clip-rule="nonzero"/></clipPath><clipPath id="dab9bf258b"><path d="M 47.09375 21.230469 C 21.542969 21.230469 0.832031 41.941406 0.832031 67.492188 C 0.832031 93.042969 21.542969 113.753906 47.09375 113.753906 C 72.640625 113.753906 93.351562 93.042969 93.351562 67.492188 C 93.351562 41.941406 72.640625 21.230469 47.09375 21.230469 Z M 47.09375 21.230469 " clip-rule="nonzero"/></clipPath><clipPath id="ac994c7e0f"><path d="M 0.832031 0.230469 L 93.351562 0.230469 L 93.351562 92.753906 L 0.832031 92.753906 Z M 0.832031 0.230469 " clip-rule="nonzero"/></clipPath><clipPath id="e3ee3689d7"><path d="M 47.09375 0.230469 C 21.542969 0.230469 0.832031 20.941406 0.832031 46.492188 C 0.832031 72.042969 21.542969 92.753906 47.09375 92.753906 C 72.640625 92.753906 93.351562 72.042969 93.351562 46.492188 C 93.351562 20.941406 72.640625 0.230469 47.09375 0.230469 Z M 47.09375 0.230469 " clip-rule="nonzero"/></clipPath><clipPath id="6431859d72"><rect x="0" width="94" y="0" height="93"/></clipPath><clipPath id="bdd49f0eaf"><rect x="0" width="102" y="0" height="135"/></clipPath><clipPath id="4fbbb5d53f"><rect x="0" width="146" y="0" height="182"/></clipPath><clipPath id="5c642ae08d"><rect x="0" width="155" y="0" height="186"/></clipPath></defs><g clip-path="url(#68384b6895)"><g clip-path="url(#1dadf361b4)"><g transform="matrix(1, 0, 0, 1, 72, 49)"><g clip-path="url(#177a92b6b4)"><g clip-path="url(#f6f3259b87)"><g clip-path="url(#407765da12)"><path fill="#000000" d="M 0.835938 0.253906 L 230.75 0.253906 L 230.75 195.792969 L 0.835938 195.792969 Z M 0.835938 0.253906 " fill-opacity="1" fill-rule="nonzero"/></g></g></g></g></g></g><g transform="matrix(1, 0, 0, 1, 103, 80)"><g clip-path="url(#bdd49f0eaf)"><g clip-path="url(#03e1ff256f)"><g transform="matrix(1, 0, 0, 1, 47, 0)"><g clip-path="url(#9b2bbae43c)"><g clip-path="url(#a627017625)"><path fill="#ffffff" d="M 0.09375 0.699219 L 54.902344 0.699219 L 54.902344 134.296875 L 0.09375 134.296875 Z M 0.09375 0.699219 " fill-opacity="1" fill-rule="nonzero"/></g></g></g></g><g clip-path="url(#4204a19637)"><g clip-path="url(#dab9bf258b)"><g transform="matrix(1, 0, 0, 1, 0, 21)"><g clip-path="url(#6431859d72)"><g clip-path="url(#ac994c7e0f)"><g clip-path="url(#e3ee3689d7)"><path fill="#ffffff" d="M 0.832031 0.230469 L 93.351562 0.230469 L 93.351562 92.753906 L 0.832031 92.753906 Z M 0.832031 0.230469 " fill-opacity="1" fill-rule="nonzero"/></g></g></g></g></g></g></g></g><g transform="matrix(1, 0, 0, 1, 143, 79)"><g clip-path="url(#4fbbb5d53f)"><g fill="#ffffff" fill-opacity="1"><g transform="translate(0.910054, 135.974528)"><g><path d="M 12.796875 -134.265625 L 67.21875 -134.265625 C 76.945312 -134.265625 86.046875 -132.582031 94.515625 -129.21875 C 102.992188 -125.851562 110.445312 -121.132812 116.875 -115.0625 C 123.300781 -109 128.34375 -101.910156 132 -93.796875 C 135.664062 -85.691406 137.5 -76.832031 137.5 -67.21875 C 137.5 -57.601562 135.664062 -48.710938 132 -40.546875 C 128.34375 -32.378906 123.300781 -25.257812 116.875 -19.1875 C 110.445312 -13.125 102.992188 -8.410156 94.515625 -5.046875 C 86.046875 -1.679688 77.007812 0 67.40625 0 L 12.796875 0 Z M 40.734375 -25.234375 L 67.40625 -25.234375 C 75.207031 -25.234375 82.234375 -27.0625 88.484375 -30.71875 C 94.734375 -34.382812 99.691406 -39.367188 103.359375 -45.671875 C 107.023438 -51.984375 108.859375 -59.164062 108.859375 -67.21875 C 108.859375 -75.382812 107.023438 -82.59375 103.359375 -88.84375 C 99.691406 -95.09375 94.703125 -100.019531 88.390625 -103.625 C 82.085938 -107.226562 75.03125 -109.03125 67.21875 -109.03125 L 40.734375 -109.03125 Z M 40.734375 -25.234375 "/></g></g></g></g></g><g transform="matrix(1, 0, 0, 1, 66, 74)"><g clip-path="url(#5c642ae08d)"><g fill="#000000" fill-opacity="1"><g transform="translate(1.058392, 139.952852)"><g><path d="M 146.871094 -73.265625 L 146.871094 -69.128906 C 146.871094 -59.121094 145.039062 -49.722656 141.375 -40.929688 C 137.714844 -32.144531 132.652344 -24.394531 126.183594 -17.683594 C 119.710938 -10.964844 112.195312 -5.742188 103.644531 -2.015625 C 95.085938 1.714844 85.921875 3.578125 76.148438 3.578125 C 66.375 3.578125 57.242188 1.742188 48.746094 -1.925781 C 40.257812 -5.585938 32.804688 -10.65625 26.394531 -17.128906 C 19.980469 -23.605469 14.972656 -31.082031 11.371094 -39.570312 C 7.765625 -48.066406 5.964844 -57.199219 5.964844 -66.964844 C 5.964844 -76.734375 7.765625 -85.894531 11.371094 -94.449219 C 14.972656 -102.996094 19.980469 -110.507812 26.394531 -116.984375 C 32.804688 -123.457031 40.257812 -128.527344 48.746094 -132.191406 C 57.242188 -135.859375 66.316406 -137.691406 75.96875 -137.691406 C 88.667969 -137.691406 100.359375 -134.667969 111.050781 -128.621094 C 121.738281 -122.574219 130.136719 -114.539062 136.25 -104.515625 L 136.84375 -103.539062 L 112.441406 -85.828125 L 111.777344 -87.089844 C 108.398438 -93.496094 103.535156 -98.679688 97.183594 -102.640625 C 90.84375 -106.597656 83.832031 -108.574219 76.148438 -108.574219 C 68.945312 -108.574219 62.382812 -106.714844 56.464844 -103.003906 C 50.523438 -99.273438 45.804688 -94.261719 42.304688 -87.96875 C 38.808594 -81.675781 37.0625 -74.671875 37.0625 -66.964844 C 37.0625 -59.378906 38.808594 -52.4375 42.304688 -46.144531 C 45.800781 -39.851562 50.519531 -34.875 56.457031 -31.207031 C 62.378906 -27.546875 68.941406 -25.71875 76.148438 -25.71875 C 84.078125 -25.71875 91.335938 -27.703125 97.921875 -31.664062 C 104.460938 -35.597656 109.179688 -41.332031 112.078125 -48.871094 L 113.230469 -48.425781 L 113.230469 -47.1875 L 75.628906 -47.1875 L 75.628906 -74.503906 L 146.871094 -74.503906 Z M 144.398438 -73.265625 L 145.632812 -73.265625 L 145.632812 -72.03125 L 76.867188 -72.03125 L 76.867188 -73.265625 L 78.105469 -73.265625 L 78.105469 -48.425781 L 76.867188 -48.425781 L 76.867188 -49.664062 L 115.035156 -49.664062 L 114.386719 -47.980469 C 111.285156 -39.914062 106.222656 -33.769531 99.199219 -29.542969 C 92.222656 -25.34375 84.539062 -23.246094 76.148438 -23.246094 C 68.472656 -23.246094 61.476562 -25.195312 55.15625 -29.101562 C 48.851562 -32.992188 43.847656 -38.273438 40.140625 -44.945312 C 36.4375 -51.609375 34.585938 -58.953125 34.585938 -66.964844 C 34.585938 -75.101562 36.4375 -82.503906 40.140625 -89.171875 C 43.84375 -95.835938 48.847656 -101.144531 55.148438 -105.097656 C 61.46875 -109.066406 68.46875 -111.046875 76.148438 -111.046875 C 84.304688 -111.046875 91.753906 -108.945312 98.496094 -104.742188 C 105.226562 -100.542969 110.382812 -95.042969 113.964844 -88.246094 L 112.871094 -87.667969 L 112.144531 -88.671875 L 134.464844 -104.871094 L 135.195312 -103.871094 L 134.136719 -103.226562 C 128.246094 -112.882812 120.144531 -120.628906 109.832031 -126.464844 C 99.519531 -132.300781 88.230469 -135.214844 75.96875 -135.214844 C 66.65625 -135.214844 57.910156 -133.449219 49.726562 -129.917969 C 41.53125 -126.378906 34.339844 -121.488281 28.152344 -115.242188 C 21.964844 -108.992188 17.128906 -101.742188 13.652344 -93.488281 C 10.175781 -85.242188 8.4375 -76.402344 8.4375 -66.964844 C 8.4375 -57.535156 10.175781 -48.722656 13.652344 -40.539062 C 17.128906 -32.34375 21.960938 -25.121094 28.152344 -18.871094 C 34.339844 -12.625 41.53125 -7.734375 49.726562 -4.195312 C 57.910156 -0.664062 66.71875 1.101562 76.148438 1.101562 C 85.578125 1.101562 94.414062 -0.691406 102.65625 -4.285156 C 110.90625 -7.878906 118.15625 -12.917969 124.402344 -19.402344 C 130.65625 -25.890625 135.550781 -33.382812 139.089844 -41.878906 C 142.628906 -50.367188 144.398438 -59.449219 144.398438 -69.128906 Z M 144.398438 -73.265625 "/></g></g></g><g fill="#000000" fill-opacity="1"><g transform="translate(1.058392, 139.952852)"><g><path d="M 145.625 -73.265625 L 145.625 -69.125 C 145.625 -59.28125 143.820312 -50.035156 140.21875 -41.390625 C 136.625 -32.753906 131.644531 -25.132812 125.28125 -18.53125 C 118.925781 -11.9375 111.546875 -6.804688 103.140625 -3.140625 C 94.742188 0.515625 85.742188 2.34375 76.140625 2.34375 C 66.546875 2.34375 57.578125 0.546875 49.234375 -3.046875 C 40.890625 -6.648438 33.566406 -11.632812 27.265625 -18 C 20.972656 -24.363281 16.054688 -31.710938 12.515625 -40.046875 C 8.972656 -48.390625 7.203125 -57.363281 7.203125 -66.96875 C 7.203125 -76.5625 8.972656 -85.554688 12.515625 -93.953125 C 16.054688 -102.359375 20.972656 -109.742188 27.265625 -116.109375 C 33.566406 -122.472656 40.890625 -127.453125 49.234375 -131.046875 C 57.578125 -134.648438 66.488281 -136.453125 75.96875 -136.453125 C 88.445312 -136.453125 99.9375 -133.476562 110.4375 -127.53125 C 120.9375 -121.59375 129.1875 -113.707031 135.1875 -103.875 L 112.875 -87.671875 C 109.394531 -94.265625 104.382812 -99.601562 97.84375 -103.6875 C 91.300781 -107.769531 84.066406 -109.8125 76.140625 -109.8125 C 68.703125 -109.8125 61.921875 -107.890625 55.796875 -104.046875 C 49.679688 -100.203125 44.820312 -95.039062 41.21875 -88.5625 C 37.625 -82.082031 35.828125 -74.882812 35.828125 -66.96875 C 35.828125 -59.164062 37.625 -52.023438 41.21875 -45.546875 C 44.820312 -39.066406 49.679688 -33.9375 55.796875 -30.15625 C 61.921875 -26.375 68.703125 -24.484375 76.140625 -24.484375 C 84.304688 -24.484375 91.78125 -26.519531 98.5625 -30.59375 C 105.34375 -34.675781 110.234375 -40.617188 113.234375 -48.421875 L 76.859375 -48.421875 L 76.859375 -73.265625 Z M 145.625 -73.265625 "/></g></g></g></g></g></svg>